<?xml version="1.0" encoding="UTF-8" standalone="no"?>
<svg version="1.1"
	 id="Calque_1" sodipodi:docname="42.svg" inkscape:version="1.0.1 (0767f8302a, 2020-10-17)" xmlns:rdf="http://www.w3.org/1999/02/22-rdf-syntax-ns#" xmlns:svg="http://www.w3.org/2000/svg" xmlns:sodipodi="http://sodipodi.sourceforge.net/DTD/sodipodi-0.dtd" xmlns:dc="http://purl.org/dc/elements/1.1/" xmlns:cc="http://creativecommons.org/ns#" xmlns:inkscape="http://www.inkscape.org/namespaces/inkscape" xmlns="http://www.w3.org/2000/svg" xmlns:xlink="http://www.w3.org/1999/xlink" x="0px" y="0px" viewBox="0 -200 960 960" enable-background="new 0 -200 960 960" xml:space="preserve">
<g aria-label="V3.X" transform="scale(1.2481215,0.80120404)" id="text845" style="font-style:normal;font-weight:normal;font-size:183.929px;line-height:1.25;font-family:sans-serif;fill:#000000;fill-opacity:1;stroke:#ffffff;stroke-width:10.505;stroke-miterlimit:4;stroke-dasharray:none;stroke-opacity:1;paint-order:stroke markers fill">
<path d="m 546.94166,590.50922 h -19.49647 l -14.34647,98.21809 h -0.36785 l -14.5304,-98.21809 h -19.86433 l 21.70362,128.7503 h 25.19828 z" style="font-style:normal;font-variant:normal;font-weight:normal;font-stretch:normal;font-size:183.929px;font-family:'Bebas Kai';-inkscape-font-specification:'Bebas Kai, Normal';font-variant-ligatures:normal;font-variant-caps:normal;font-variant-numeric:normal;font-variant-east-asian:normal;stroke:#ffffff;stroke-width:10.505;stroke-miterlimit:4;stroke-dasharray:none;stroke-opacity:1;paint-order:stroke markers fill" id="path899" />
<path d="m 586.3312,588.66993 c -19.31254,0 -30.53221,11.4036 -30.53221,30.90007 v 7.90895 l 18.76076,0.91965 v -6.43752 c 0,-10.48395 3.67858,-15.26611 11.21967,-15.26611 7.54109,0 11.58752,5.15001 11.58752,14.34647 v 6.9893 c 0,10.85181 -3.8625,15.63396 -12.87503,15.63396 h -8.09287 v 18.02504 h 8.09287 c 9.93217,0 14.16254,5.15002 14.16254,16.55361 v 9.93217 c 0,9.56431 -4.04644,14.89825 -12.32325,14.89825 -8.09287,0 -11.95538,-4.78215 -11.95538,-15.26611 v -6.43751 l -18.76076,0.91964 v 7.90895 c 0,19.49647 11.4036,30.90007 31.26793,30.90007 19.86433,0 31.26793,-11.77145 31.26793,-31.63579 v -9.74823 c 0,-14.16254 -5.15001,-23.35899 -15.45003,-27.58935 v -0.36786 c 9.5643,-3.86251 14.16253,-11.95539 14.16253,-24.0947 v -7.35716 c 0,-19.86433 -11.21967,-31.63579 -30.53222,-31.63579 z" style="font-style:normal;font-variant:normal;font-weight:normal;font-stretch:normal;font-size:183.929px;font-family:'Bebas Kai';-inkscape-font-specification:'Bebas Kai, Normal';font-variant-ligatures:normal;font-variant-caps:normal;font-variant-numeric:normal;font-variant-east-asian:normal;stroke:#ffffff;stroke-width:10.505;stroke-miterlimit:4;stroke-dasharray:none;stroke-opacity:1;paint-order:stroke markers fill" id="path901" />
<path d="m 655.00856,698.65947 h -20.60005 v 20.60005 h 20.60005 z" style="font-style:normal;font-variant:normal;font-weight:normal;font-stretch:normal;font-size:183.929px;font-family:'Bebas Kai';-inkscape-font-specification:'Bebas Kai, Normal';font-variant-ligatures:normal;font-variant-caps:normal;font-variant-numeric:normal;font-variant-east-asian:normal;stroke:#ffffff;stroke-width:10.505;stroke-miterlimit:4;stroke-dasharray:none;stroke-opacity:1;paint-order:stroke markers fill" id="path903" />
<path d="m 740.93791,590.50922 h -20.23219 l -13.79468,41.01617 h -0.36786 l -14.34646,-41.01617 h -20.60005 l 23.17506,61.98407 -24.64649,66.76623 h 20.23219 l 15.08218,-45.24653 h 0.36786 l 16.00182,45.24653 h 20.60005 l -24.64649,-66.03051 z" style="font-style:normal;font-variant:normal;font-weight:normal;font-stretch:normal;font-size:183.929px;font-family:'Bebas Kai';-inkscape-font-specification:'Bebas Kai, Normal';font-variant-ligatures:normal;font-variant-caps:normal;font-variant-numeric:normal;font-variant-east-asian:normal;stroke:#ffffff;stroke-width:10.505;stroke-miterlimit:4;stroke-dasharray:none;stroke-opacity:1;paint-order:stroke markers fill" id="path905" />
</g>
<path id="polygon5" style="stroke:#ffffff;stroke-width:20;stroke-miterlimit:4;stroke-dasharray:none;stroke-opacity:1;paint-order:stroke markers fill" d="M 362.1,578 H 526.8 V 279.1 H 197.3 L 526.8,-51.1 H 362.1 L 32,279.1 v 133.5 h 330.1 z" />
<path id="polygon7" d="M 597.90039,-51.09961 V 114.19942 L 762.69941,-51.09961 Z m 164.79902,0 V 114.19942 L 597.90039,279.1 V 443.90097 H 762.69941 V 279.1 L 928.00039,114.19942 V -51.09961 Z m 0,495.00058 H 928.00039 V 279.1 Z" style="stroke:#ffffff;stroke-width:20;stroke-miterlimit:4;stroke-dasharray:none;stroke-opacity:1;paint-order:stroke markers fill" />
</svg>
